<svg xmlns="http://www.w3.org/2000/svg" width="62.195" height="66.917" viewBox="0 0 62.195 66.917">
  <g id="Grupo_10" data-name="Grupo 10" transform="translate(-264.782 -628.936)">
    <path id="Trazado_2" data-name="Trazado 2" d="M266.728,662.348c-.565-.909-2.1-1.4-1.9-2.446.166-.861,1.332-1.538,2.073-2.28Q281,643.534,295.077,629.432c.622-.624.908-.684,1.553-.037q14.89,14.939,29.844,29.814c.63.626.73,1.036.014,1.616a17.147,17.147,0,0,0-1.353,1.356,3.886,3.886,0,0,1-1.121,1.645q-13.274,13.246-26.543,26.5c-1.457,1.453-1.717,1.448-3.21-.043q-13.272-13.248-26.537-26.5A2.579,2.579,0,0,1,266.728,662.348Z" transform="translate(-0.009 0)" fill="#001f69"/>
    <path id="Trazado_3" data-name="Trazado 3" d="M266.719,677.9q10.189,10.142,20.377,20.285c2.621,2.61,5.271,5.192,7.83,7.861.8.831,1.21.661,1.925-.055q14.112-14.154,28.274-28.258c0,.813.7,1.145,1.183,1.582.756.691.875,1.159.051,1.976q-13.184,13.07-26.295,26.215c-1.131,1.13-2.3,2.223-3.383,3.4-.591.642-.943.685-1.6.028q-8.978-9.042-18.02-18.02c-3.878-3.873-7.725-7.776-11.649-11.6-.835-.813-.869-1.294.031-1.994A10.352,10.352,0,0,0,266.719,677.9Z" transform="translate(0 -15.55)" fill="#a4b4be"/>
    <path id="Trazado_4" data-name="Trazado 4" d="M318.543,676.073a13.466,13.466,0,0,1-4.035,9.247c-3.4,3.512-6.9,6.914-10.334,10.393-.527.534-.8.448-1.284-.044q-4.763-4.825-9.6-9.581c-.572-.562-.673-.879-.048-1.5q10.111-10.035,20.168-20.125c.4-.4.664-.8,1.243-.076A20.69,20.69,0,0,1,318.543,676.073Z" transform="translate(-8.934 -11.17)" fill="#fefefe"/>
    <path id="Trazado_5" data-name="Trazado 5" d="M290.323,656.913c-.057-2.12,1.358-5.38,3.941-8.083,3.406-3.565,6.958-6.99,10.419-10.5.518-.526.791-.475,1.286.025q4.815,4.87,9.7,9.671c.564.554.519.865-.018,1.4q-10.105,10.04-20.165,20.126c-.48.481-.8.8-1.32.011A21.549,21.549,0,0,1,290.323,656.913Z" transform="translate(-8.139 -2.874)" fill="#fefefe"/>
  </g>
</svg>
