<svg xmlns="http://www.w3.org/2000/svg" viewBox="0 0 71.84 79.96"><defs><style>.cls-1{fill:#fff;}</style></defs><title>Asset 1</title><g id="Layer_2" data-name="Layer 2"><g id="Capa_1" data-name="Capa 1"><path class="cls-1" d="M60.9,50.91a1.56,1.56,0,1,0-1.56-1.56A1.56,1.56,0,0,0,60.9,50.91Z"/><path class="cls-1" d="M10.93,50.91a1.56,1.56,0,1,0-1.56-1.56A1.56,1.56,0,0,0,10.93,50.91Z"/><path class="cls-1" d="M19.12,64.34h10a27,27,0,0,1,5.21,5.19v1.05H29.67A7.82,7.82,0,0,0,22,76.83H17.18a1.56,1.56,0,0,0,0,3.12H54.66a1.56,1.56,0,0,0,0-3.12H49.82a7.82,7.82,0,0,0-7.65-6.25H37.48V69.53a27,27,0,0,1,5.21-5.19h10A19.15,19.15,0,0,0,71.84,45.22v-3a1.56,1.56,0,0,0-2.15-1.45,23.76,23.76,0,0,1-9,1.75H56.1A15.52,15.52,0,0,0,40.6,58v4a38.9,38.9,0,0,0-3.12,2.76V40.54a20.3,20.3,0,1,0-3.12,0V64.77A38.93,38.93,0,0,0,31.23,62V58a15.52,15.52,0,0,0-15.5-15.5H11.15a23.76,23.76,0,0,1-9-1.75A1.56,1.56,0,0,0,0,42.17v3A19.15,19.15,0,0,0,19.12,64.34Zm37-18.74h4.58a26.93,26.93,0,0,0,8-1.21v.83a16,16,0,0,1-16,16h-5.8l2.67-1.86c2.17-1.5,4.63-3.21,7.19-5.11a1.56,1.56,0,0,0-1.87-2.5c-2.51,1.87-4.84,3.49-7.1,5-1.42,1-2.78,1.93-4.08,2.86V58A12.39,12.39,0,0,1,56.1,45.6ZM46.58,76.83H25.25a4.69,4.69,0,0,1,4.42-3.12H42.16A4.69,4.69,0,0,1,46.58,76.83ZM18.74,20.3A17.18,17.18,0,1,1,35.92,37.48,17.2,17.2,0,0,1,18.74,20.3ZM3.12,44.39a26.93,26.93,0,0,0,8,1.21h4.58A12.39,12.39,0,0,1,28.11,58v1.67c-1.29-.93-2.66-1.88-4.08-2.86-2.26-1.56-4.59-3.18-7.1-5a1.56,1.56,0,1,0-1.87,2.5c2.55,1.9,5,3.61,7.19,5.11l2.67,1.86h-5.8a16,16,0,0,1-16-16Z"/><path class="cls-1" d="M37.48,32.91V31.15a6.26,6.26,0,0,0,4.68-6c0-3.15-2.93-4.7-5.52-6.06-2.33-1.23-3.85-2.13-3.85-3.31a3.12,3.12,0,0,1,6.25,0,1.56,1.56,0,1,0,3.12,0,6.26,6.26,0,0,0-4.68-6V7.92a1.56,1.56,0,1,0-3.12,0V9.68a6.26,6.26,0,0,0-4.68,6c0,3.15,2.93,4.7,5.52,6.07C37.52,23,39,23.92,39,25.1a3.12,3.12,0,0,1-6.25,0,1.56,1.56,0,1,0-3.12,0,6.26,6.26,0,0,0,4.68,6v1.76a1.56,1.56,0,0,0,3.12,0Z"/></g></g></svg>