<svg xmlns="http://www.w3.org/2000/svg" viewBox="0 0 58.85 79.96"><defs><style>.cls-1{fill:#fff;}</style></defs><title>Asset 123</title><g id="Layer_2" data-name="Layer 2"><g id="Capa_1" data-name="Capa 1"><path class="cls-1" d="M17.83,17.87a16.35,16.35,0,0,1,19-3h0a1.53,1.53,0,0,0,2.05-.68,1.53,1.53,0,0,0-.68-2.05A19.45,19.45,0,0,0,14.06,41.38a1.53,1.53,0,1,0,2.41-1.88A16.4,16.4,0,0,1,17.83,17.87Z"/><path class="cls-1" d="M46.78,20.69A1.53,1.53,0,0,0,44.72,20h0A1.53,1.53,0,0,0,44,22.07,16.39,16.39,0,0,1,19.37,42.4a1.53,1.53,0,0,0-1.88,2.41A19.45,19.45,0,0,0,46.78,20.69Z"/><path class="cls-1" d="M41,17.87c.24.24.48.49.7.75a1.53,1.53,0,0,0,2.29-2c-.27-.3-.55-.6-.83-.88s-.58-.57-.89-.83a1.53,1.53,0,0,0-2,2.29C40.51,17.39,40.76,17.63,41,17.87Z"/><path class="cls-1" d="M58.29,28.6A3.71,3.71,0,0,0,57.73,24l-3.46-3.41a.6.6,0,0,1-.18-.47l.35-4.87a3.71,3.71,0,0,0-2.64-3.83L47.17,10a.6.6,0,0,1-.38-.34L44.86,5.22A3.75,3.75,0,0,0,40.73,3L36,4a.6.6,0,0,1-.49-.12l-3.75-3a3.75,3.75,0,0,0-4.68,0l-3.75,3a.6.6,0,0,1-.49.12L18.12,3A3.75,3.75,0,0,0,14,5.22L12.05,9.68a.6.6,0,0,1-.38.34L7.05,11.41a3.71,3.71,0,0,0-2.64,3.83l.35,4.87a.6.6,0,0,1-.18.47L1.12,24A3.71,3.71,0,0,0,.56,28.6l2.56,4.15a.6.6,0,0,1,.06.5l-1.5,4.65a3.71,3.71,0,0,0,1.65,4.34l4.17,2.47a.6.6,0,0,1,.29.42l.82,4.8A3.7,3.7,0,0,0,12.08,53l4.81.24a.6.6,0,0,1,.45.24L18.49,55V78.39A1.56,1.56,0,0,0,21,79.63l8.42-6.49,8.42,6.49a1.56,1.56,0,0,0,2.52-1.24V57s1.28-2.45,1.84-3.39a.61.61,0,0,1,.53-.35l4-.25a3.7,3.7,0,0,0,3.49-3.1l.82-4.8a.6.6,0,0,1,.29-.42l4.17-2.47a3.71,3.71,0,0,0,1.65-4.34l-1.5-4.65a.6.6,0,0,1,.06-.5ZM31,70.4V67.77a1.56,1.56,0,1,0-3.12,0V70.4l-6.25,4.82V58.47a3.78,3.78,0,0,0,1.63.37,3.69,3.69,0,0,0,1.56-.35l4.36-2a.6.6,0,0,1,.51,0l4.36,2a3.74,3.74,0,0,0,3.2,0V75.22ZM55.63,27l-2.56,4.15a3.72,3.72,0,0,0-.37,3.09l1.5,4.65a.6.6,0,0,1-.27.7L49.76,42A3.72,3.72,0,0,0,48,44.62l-.82,4.8a.6.6,0,0,1-.56.5l-4.81.24A3.72,3.72,0,0,0,39,51.63l-2.93,3.85a.61.61,0,0,1-.73.18l-4.36-2a3.72,3.72,0,0,0-3.15,0h0l-4.36,2a.61.61,0,0,1-.73-.18l-1.23-1.61a1.56,1.56,0,0,0-.59-.77l-1.11-1.47A3.72,3.72,0,0,0,17,50.16l-4.81-.24a.6.6,0,0,1-.56-.5l-.82-4.8A3.72,3.72,0,0,0,9.08,42L4.92,39.57a.6.6,0,0,1-.27-.7l1.5-4.65a3.72,3.72,0,0,0-.37-3.09L3.22,27a.6.6,0,0,1,.09-.75l3.46-3.41a3.72,3.72,0,0,0,1.1-2.92L7.53,15A.6.6,0,0,1,8,14.4L12.57,13a3.72,3.72,0,0,0,2.34-2.09l1.93-4.46a.61.61,0,0,1,.56-.36h.11L22.24,7a3.72,3.72,0,0,0,3.06-.76l3.75-3a.61.61,0,0,1,.76,0l3.75,3A3.72,3.72,0,0,0,36.61,7l4.72-.93a.61.61,0,0,1,.67.35l1.93,4.46A3.72,3.72,0,0,0,46.27,13l4.62,1.39a.6.6,0,0,1,.43.62L51,19.89a3.72,3.72,0,0,0,1.1,2.92l3.46,3.41A.6.6,0,0,1,55.63,27Z"/><path class="cls-1" d="M29.42,60a1.56,1.56,0,1,0,1.1.46A1.57,1.57,0,0,0,29.42,60Z"/><path class="cls-1" d="M26.72,36.42A1.52,1.52,0,0,1,25.64,36l-5.4-5.4a1.53,1.53,0,0,1,2.16-2.16l4.32,4.32L36.45,23a1.53,1.53,0,1,1,2.16,2.16L27.8,36A1.52,1.52,0,0,1,26.72,36.42Z"/></g></g></svg>