<svg width="76" height="21" viewBox="0 0 76 21" fill="none" xmlns="http://www.w3.org/2000/svg">
<g clip-path="url(#clip0_107_624)">
<path fill-rule="evenodd" clip-rule="evenodd" d="M6.37226 4.43326H4.25517C4.11924 4.43326 4.11701 4.43326 4.11478 4.57014V8.69217C4.11478 8.86271 4.11477 8.86719 4.25071 8.86719C5.53879 8.86719 6.82688 8.86719 8.11496 8.86719C8.49172 8.87033 8.86697 8.81895 9.22921 8.71461C9.45584 8.65593 9.66105 8.53314 9.82059 8.36077C9.98013 8.1884 10.0873 7.97365 10.1295 7.74189C10.2265 7.22437 10.255 6.6962 10.2142 6.17116C10.2079 5.94596 10.1773 5.72213 10.1228 5.5036C10.0808 5.31778 9.99415 5.1452 9.87038 5.00102C9.74662 4.85684 9.58958 4.74548 9.41307 4.67673C9.31514 4.63601 9.21463 4.6019 9.11221 4.57463C8.758 4.48614 8.39409 4.44316 8.02916 4.44673C7.47203 4.43775 6.92381 4.44673 6.37114 4.44673L6.37226 4.43326ZM6.65528 12.325H4.27412C4.11813 12.325 4.11812 12.325 4.11589 12.4787V17.1909C4.11589 17.2549 4.13929 17.2908 4.20837 17.2874H8.33111C8.56734 17.2874 8.80245 17.2762 9.03645 17.2571C9.29534 17.2388 9.55077 17.1868 9.79636 17.1023C9.9846 17.0405 10.155 16.9334 10.2929 16.7902C10.4307 16.6471 10.5318 16.4724 10.5875 16.281C10.6357 16.129 10.6697 15.9727 10.6889 15.8143C10.749 15.2249 10.758 14.6314 10.7156 14.0405C10.7043 13.8572 10.6779 13.6752 10.6365 13.4963C10.5923 13.2403 10.4717 13.0038 10.2908 12.8185C10.1098 12.6331 9.87716 12.5076 9.62366 12.4585C9.25813 12.3748 8.88428 12.3334 8.50941 12.3351C7.891 12.3273 7.27481 12.3351 6.65752 12.3351L6.65528 12.325ZM12.8427 10.4334C12.8494 10.4716 12.8829 10.4783 12.9063 10.4918C13.3769 10.7531 13.7856 11.1141 14.1042 11.5499C14.4228 11.9857 14.6436 12.486 14.7515 13.0162C14.9389 13.8913 15.0041 14.7886 14.9453 15.6819C14.9253 16.2446 14.8439 16.8033 14.7024 17.348C14.5371 18.0343 14.1967 18.6652 13.7147 19.1782C13.2327 19.6913 12.626 20.0686 11.9547 20.2729C11.3287 20.4802 10.6812 20.6142 10.0248 20.6723C9.41533 20.726 8.80357 20.7488 8.19183 20.7408H1.89184C1.59762 20.7462 1.30356 20.7229 1.01381 20.6712C0.921807 20.6524 0.831008 20.6281 0.741925 20.5983C0.601295 20.553 0.473345 20.4748 0.368557 20.37C0.263768 20.2653 0.185139 20.137 0.139122 19.9958C0.0529805 19.7185 0.00681358 19.4302 0.00205755 19.1397C0.00205755 19.0455 0.00205755 18.9501 0.00205755 18.8548V2.86029C-0.00259718 2.57006 0.0201737 2.28005 0.0700391 1.99415C0.0890666 1.8953 0.11589 1.79813 0.150262 1.70357C0.196913 1.56617 0.2745 1.44151 0.376949 1.33933C0.479398 1.23715 0.603924 1.16021 0.740809 1.11454C0.998852 1.03269 1.26704 0.987743 1.5375 0.981031C1.67233 0.973178 1.80827 0.973177 1.94421 0.973177H8.1417C9.04789 0.962942 9.95216 1.05972 10.836 1.26152C11.1737 1.34154 11.5043 1.44962 11.8243 1.58464C12.4207 1.82061 12.9511 2.19933 13.3694 2.68804C13.7878 3.17676 14.0817 3.76075 14.2255 4.38951C14.429 5.26153 14.4944 6.16043 14.4194 7.05301C14.3949 7.55319 14.3073 8.04821 14.1587 8.52613C13.942 9.24469 13.5148 9.88058 12.933 10.3504C12.9029 10.3751 12.8595 10.3897 12.8528 10.4357L12.8427 10.4334Z" fill="white"/>
<path fill-rule="evenodd" clip-rule="evenodd" d="M51.3084 4.43328H49.1914C49.0387 4.43328 49.0365 4.43328 49.0365 4.5724V8.72361C49.0365 8.86048 49.0365 8.86385 49.1724 8.86385C50.4661 8.86385 51.7597 8.86385 53.0567 8.85712C53.4156 8.85902 53.7731 8.8126 54.1197 8.71911C54.354 8.66582 54.5678 8.54471 54.7347 8.3707C54.9016 8.19668 55.0143 7.97734 55.059 7.73966C55.0803 7.64786 55.0967 7.55498 55.1081 7.46142C55.1601 6.97701 55.1691 6.48889 55.1348 6.00288C55.1249 5.80762 55.0912 5.61433 55.0345 5.42732C54.9878 5.25518 54.9018 5.09639 54.7834 4.96356C54.665 4.83074 54.5175 4.72753 54.3526 4.66216C54.2548 4.62174 54.1547 4.58727 54.0529 4.55894C53.6982 4.471 53.334 4.42803 52.9687 4.43103C52.4116 4.42206 51.8645 4.43103 51.3118 4.43103L51.3084 4.43328ZM51.577 12.3251H49.1947C49.0398 12.3251 49.0398 12.3251 49.0365 12.4788V17.1909C49.0365 17.2583 49.0621 17.2897 49.129 17.2874H53.2383C53.479 17.2874 53.7197 17.2762 53.9604 17.2571C54.2307 17.239 54.4973 17.1835 54.7526 17.0922C54.9316 17.0304 55.0936 16.9272 55.2256 16.7907C55.3576 16.6543 55.4559 16.4886 55.5125 16.3068C55.5475 16.1999 55.5758 16.0909 55.5972 15.9804C55.6654 15.5351 55.6908 15.0842 55.673 14.634C55.6794 14.2491 55.6443 13.8647 55.5682 13.4874C55.5235 13.2342 55.4039 13.0006 55.2249 12.8172C55.0459 12.6338 54.816 12.5091 54.5654 12.4597C54.2001 12.3745 53.8261 12.3323 53.4512 12.334C52.8272 12.3262 52.2043 12.334 51.5803 12.334L51.577 12.3251ZM57.7477 10.4335C57.7878 10.4593 57.8101 10.4772 57.8324 10.4907C58.2901 10.7442 58.6892 11.0926 59.0035 11.5129C59.3177 11.9331 59.5399 12.4156 59.6553 12.9287C59.8029 13.5391 59.8777 14.1651 59.8782 14.7933C59.9049 15.5098 59.8526 16.227 59.7222 16.9318C59.6032 17.592 59.3469 18.2194 58.9701 18.7729C58.4893 19.4317 57.8232 19.93 57.058 20.2034C56.4829 20.4167 55.8843 20.5595 55.2752 20.6286C54.6031 20.7097 53.9264 20.7472 53.2495 20.7408C51.1027 20.7408 48.9555 20.7408 46.808 20.7408C46.5315 20.7456 46.2551 20.7249 45.9823 20.6791C45.7071 20.6631 45.4482 20.5421 45.2584 20.3408C45.0686 20.1395 44.9621 19.8729 44.9605 19.5953C44.9327 19.372 44.9193 19.1471 44.9204 18.9221V2.80421C44.9159 2.51374 44.9406 2.22356 44.994 1.93807C45.0258 1.71228 45.1302 1.5032 45.2912 1.34275C45.4522 1.1823 45.6608 1.0793 45.8854 1.04948C46.1638 0.996641 46.4467 0.971092 46.73 0.973191C48.983 0.973191 51.236 0.966463 53.489 0.983292C54.4255 0.981166 55.3569 1.12227 56.2513 1.40178C56.8846 1.59266 57.4697 1.91826 57.9672 2.35655C58.5623 2.91276 58.9757 3.63769 59.1528 4.43552C59.3357 5.22054 59.4022 6.0285 59.35 6.83312C59.3337 7.35432 59.2562 7.87176 59.1194 8.37468C58.9108 9.16569 58.4515 9.86651 57.8112 10.3706L57.741 10.4323L57.7477 10.4335Z" fill="white"/>
<path fill-rule="evenodd" clip-rule="evenodd" d="M25.0317 13.7555V11.2188C25.039 11.1785 25.0318 11.137 25.0114 11.1016C24.9909 11.0662 24.9586 11.0393 24.9203 11.0258C24.2322 10.7074 23.5251 10.4324 22.8032 10.2023C22.3284 10.043 21.8306 9.96448 21.3301 9.97007C21.2171 9.96891 21.1058 9.99827 21.0078 10.0551C20.9098 10.1119 20.8287 10.1941 20.773 10.2932C20.6826 10.4527 20.6158 10.6247 20.5747 10.8037C20.481 11.1828 20.4243 11.5702 20.4053 11.9604C20.3149 13.26 20.3253 14.5646 20.4365 15.8625C20.4621 16.2229 20.5336 16.5785 20.6493 16.9205C20.6878 17.1126 20.8002 17.2816 20.962 17.3905C21.1238 17.4994 21.3219 17.5394 21.5129 17.5017C21.8479 17.4878 22.1805 17.4371 22.5046 17.3502C23.3182 17.1168 24.1146 16.8263 24.8879 16.4807C24.9372 16.4671 24.98 16.4359 25.0082 16.393C25.0365 16.3502 25.0484 16.2984 25.0417 16.2474C25.0417 15.4183 25.0417 14.5903 25.0417 13.7611L25.0317 13.7555ZM25.0885 19.6716C24.489 19.9262 23.9063 20.1663 23.3057 20.3627C22.4927 20.6431 21.6462 20.8129 20.7886 20.8675C20.3074 20.8949 19.8247 20.8571 19.3534 20.7554C18.8847 20.6558 18.4467 20.4441 18.0765 20.1381C17.7062 19.832 17.4146 19.4408 17.2263 18.9973C16.9712 18.4303 16.7928 17.8315 16.6959 17.2167C16.5312 16.1877 16.4496 15.1468 16.4519 14.1044C16.4408 13.2865 16.4575 12.4698 16.5232 11.6541C16.5735 10.7191 16.7493 9.79516 17.0458 8.90759C17.1484 8.62381 17.2787 8.35097 17.4347 8.09306C17.6518 7.72511 17.9461 7.40929 18.2969 7.16765C18.6477 6.92601 19.0467 6.76436 19.466 6.69398C20.1291 6.57841 20.8066 6.57235 21.4716 6.67604C22.6443 6.86992 23.7872 7.21494 24.8723 7.70261L25.0361 7.76769L25.0841 7.77442C25.1008 7.7172 25.1197 7.66222 25.1353 7.59715C25.1737 7.40965 25.2655 7.23746 25.3994 7.10159C25.5334 6.96572 25.7037 6.87204 25.8897 6.83199C26.09 6.78398 26.2945 6.75543 26.5003 6.74672C26.9639 6.71057 27.4301 6.72788 27.8897 6.79833C27.9757 6.81331 28.0605 6.83393 28.1438 6.86004C28.3042 6.90364 28.4501 6.9897 28.5663 7.10926C28.6824 7.22882 28.7647 7.37753 28.8045 7.53994C28.8625 7.75722 28.8958 7.98042 28.9037 8.20525C28.9126 8.35896 28.9126 8.51379 28.9126 8.66749V18.7841C28.919 19.1039 28.8951 19.4236 28.8413 19.7389C28.8116 19.9642 28.7091 20.1735 28.5496 20.3345C28.3902 20.4955 28.1826 20.5992 27.9588 20.6297C27.7045 20.6799 27.4459 20.7051 27.1867 20.7049C26.7986 20.7242 26.4095 20.7001 26.0267 20.6331C25.9409 20.6152 25.8564 20.5916 25.7738 20.5624C25.6303 20.5152 25.5003 20.4337 25.3949 20.3249C25.2895 20.216 25.2119 20.0831 25.1687 19.9375C25.142 19.8522 25.1186 19.7669 25.0885 19.6704V19.6716Z" fill="white"/>
<path fill-rule="evenodd" clip-rule="evenodd" d="M34.6131 7.78902C35.0342 7.61399 35.4566 7.43897 35.8911 7.28414C36.64 7.00177 37.4165 6.80019 38.2076 6.68278C38.9063 6.57159 39.619 6.5864 40.3125 6.72654C40.6933 6.80805 41.0537 6.96676 41.3717 7.19302C41.6897 7.41927 41.9586 7.70832 42.1621 8.04258C42.4702 8.56152 42.7017 9.12273 42.8496 9.70867C43.0333 10.4326 43.1151 11.1788 43.0925 11.9256C43.1003 14.2896 43.0925 16.6524 43.0925 19.0152C43.0949 19.2996 43.0635 19.5832 42.9989 19.8601C42.9602 20.0472 42.8689 20.2191 42.736 20.3556C42.6031 20.492 42.4341 20.5871 42.2491 20.6297C42.0671 20.6801 41.8803 20.7106 41.6919 20.7206C41.1763 20.7653 40.6571 20.7488 40.1453 20.6712C40.0352 20.651 39.9273 20.6198 39.8233 20.5781C39.6964 20.5306 39.5812 20.4559 39.486 20.359C39.3907 20.2621 39.3176 20.1454 39.2718 20.0171C39.1968 19.8049 39.1539 19.5825 39.1447 19.3574C39.1347 19.1914 39.1314 19.0208 39.1314 18.8604V11.7921C39.1367 11.4248 39.105 11.0579 39.0366 10.6971C39.0168 10.5984 38.9854 10.5023 38.9431 10.411C38.8894 10.2752 38.7946 10.1598 38.6723 10.0811C38.5499 10.0023 38.4061 9.96431 38.2611 9.97233C37.7963 9.97983 37.335 10.0554 36.8917 10.1967C36.1567 10.4289 35.4376 10.7093 34.739 11.0359C34.6654 11.0685 34.6275 11.1077 34.6342 11.1941C34.6365 11.236 34.6365 11.2779 34.6342 11.3198V18.8178C34.6433 19.1494 34.6175 19.4811 34.5573 19.8073C34.5252 20.014 34.4309 20.2058 34.287 20.3567C34.1431 20.5076 33.9566 20.6103 33.7529 20.651C33.5931 20.6907 33.4301 20.7159 33.2659 20.7262C32.7617 20.7724 32.2538 20.7551 31.7539 20.6746C31.6618 20.6568 31.5713 20.6316 31.4831 20.5994C31.3433 20.5521 31.2168 20.4718 31.114 20.3653C31.0113 20.2587 30.9354 20.129 30.8926 19.9868C30.8272 19.79 30.7897 19.5849 30.7811 19.3776C30.77 19.1532 30.7633 18.9288 30.7633 18.7044V8.76624C30.7504 8.39328 30.7784 8.02002 30.8469 7.65326C30.8814 7.45088 30.9774 7.26426 31.1217 7.11917C31.266 6.97407 31.4514 6.87766 31.6525 6.84322C32.1383 6.74928 32.6344 6.7206 33.1278 6.75795C33.345 6.76554 33.5611 6.79409 33.7729 6.84322C33.9654 6.88193 34.1422 6.97718 34.281 7.11695C34.4198 7.25672 34.5144 7.43475 34.5529 7.62858C34.564 7.67458 34.5763 7.72058 34.5897 7.76545C34.5897 7.77555 34.6041 7.78341 34.6153 7.79687L34.6131 7.78902Z" fill="white"/>
<path fill-rule="evenodd" clip-rule="evenodd" d="M72.1591 14.744V18.9726C72.1609 19.1977 72.1471 19.4226 72.1178 19.6458C72.1116 19.9046 72.0113 20.1522 71.8359 20.3416C71.6606 20.531 71.4223 20.6491 71.1663 20.6735C70.5458 20.7877 69.9101 20.7904 69.2887 20.6813C69.0195 20.6625 68.7675 20.5409 68.5842 20.3413C68.401 20.1418 68.3003 19.8794 68.3026 19.6076C68.2746 19.3784 68.2616 19.1475 68.2636 18.9165V10.2091C68.2636 9.95438 68.3071 9.97345 68.0307 9.97009C67.7716 9.97149 67.513 9.94744 67.2586 9.89828C67.0436 9.86878 66.8436 9.7711 66.6875 9.61939C66.5314 9.46768 66.4274 9.26984 66.3906 9.05458C66.2936 8.60677 66.2917 8.14338 66.385 7.69478C66.4153 7.45537 66.5282 7.23428 66.7039 7.07021C66.8797 6.90613 67.1072 6.8095 67.3466 6.79722C67.6088 6.7615 67.8731 6.74313 68.1377 6.74224C68.2703 6.74224 68.2714 6.74225 68.277 6.60425C68.3037 5.98942 68.3338 5.37011 68.4129 4.76313C68.4875 4.12824 68.6291 3.50316 68.8352 2.89846C68.9472 2.56638 69.1291 2.26261 69.3686 2.00795C69.608 1.7533 69.8993 1.55379 70.2225 1.4231C70.749 1.1985 71.3074 1.05879 71.8771 1.0091C72.5815 0.953702 73.2887 0.944333 73.9942 0.981048C74.2827 0.989017 74.5692 1.03158 74.8477 1.10783C75.1799 1.16644 75.4797 1.3442 75.6917 1.60821C75.9037 1.87223 76.0136 2.20463 76.001 2.54392C76.0133 2.74543 75.9987 2.94769 75.9576 3.14528C75.9101 3.39077 75.8019 3.62023 75.6429 3.81242C75.484 4.00462 75.2795 4.15333 75.0483 4.24479C74.6371 4.4086 74.1979 4.48942 73.7558 4.48265C73.4915 4.47384 73.2268 4.48697 72.9647 4.52191C72.7622 4.53809 72.5727 4.62886 72.4325 4.77686C72.2923 4.92485 72.2112 5.11969 72.2047 5.32411C72.1646 5.76648 72.1568 6.21121 72.1813 6.65473C72.1813 6.71195 72.2025 6.74 72.266 6.74H72.4064C72.919 6.74 73.4304 6.74 73.9419 6.76356C74.1301 6.77111 74.317 6.79971 74.499 6.84883C74.6718 6.8902 74.83 6.97882 74.956 7.10492C75.0821 7.23103 75.171 7.38972 75.2132 7.56351C75.3086 7.94343 75.335 8.33758 75.2912 8.72697C75.278 8.87462 75.2496 9.02051 75.2065 9.16228C75.1609 9.32884 75.0727 9.48042 74.9507 9.6019C74.8287 9.72337 74.6771 9.81048 74.5112 9.85453C74.2795 9.92264 74.0395 9.95813 73.7981 9.95999C73.309 9.96672 72.8209 9.95999 72.3329 9.96784C72.1724 9.96784 72.1702 9.96784 72.1702 10.1373V14.7372L72.1591 14.744Z" fill="white"/>
<path fill-rule="evenodd" clip-rule="evenodd" d="M65.2862 13.7376V18.9232C65.2919 19.2247 65.2634 19.5258 65.2015 19.8208C65.1679 20.0223 65.0744 20.2087 64.9334 20.3555C64.7923 20.5024 64.6104 20.6027 64.4115 20.6432C64.2452 20.6845 64.0755 20.7107 63.9045 20.7217C63.3944 20.7678 62.8807 20.7508 62.3747 20.6712C62.2647 20.6506 62.1572 20.6187 62.0538 20.5759C61.9302 20.5261 61.8187 20.4502 61.7267 20.3535C61.6346 20.2567 61.5642 20.1413 61.52 20.0149C61.4353 19.7616 61.3894 19.4968 61.3841 19.2295C61.3763 19.0871 61.3774 18.9446 61.3774 18.8043V8.69445C61.3697 8.36911 61.3929 8.04377 61.4465 7.72285C61.474 7.50019 61.5724 7.29247 61.7268 7.13071C61.8812 6.96894 62.0835 6.86181 62.3034 6.82529C62.4813 6.78665 62.662 6.76189 62.8438 6.75124C63.3133 6.71329 63.7856 6.73099 64.2511 6.80397C64.3433 6.8204 64.4341 6.84365 64.5229 6.87353C64.6761 6.91931 64.8152 7.00357 64.927 7.11839C65.0389 7.23322 65.12 7.37482 65.1625 7.52987C65.2507 7.86218 65.2883 8.20605 65.2739 8.54972V13.7354L65.2862 13.7376Z" fill="white"/>
<path fill-rule="evenodd" clip-rule="evenodd" d="M65.8603 2.44742C65.7823 1.90354 65.5308 1.39992 65.1438 1.01246C64.7305 0.608942 64.196 0.354832 63.6239 0.289921C63.5057 0.274219 63.3866 0.266346 63.2674 0.266357C62.9356 0.267974 62.6073 0.3354 62.3014 0.464787C61.9954 0.594173 61.7178 0.782985 61.4844 1.02043C61.251 1.25788 61.0663 1.53931 60.9409 1.84865C60.8155 2.15799 60.7518 2.48917 60.7536 2.82327C60.7517 2.9771 60.7644 3.13075 60.7915 3.28215C60.8955 3.99624 61.2175 4.66006 61.713 5.18161C61.9134 5.40877 62.1611 5.5886 62.4384 5.70826C62.7158 5.82792 63.016 5.88446 63.3175 5.87385C63.6559 5.85897 63.9879 5.77618 64.294 5.63033C64.6002 5.48448 64.8743 5.27852 65.1003 5.02453C65.4213 4.68673 65.6577 4.27673 65.7899 3.82853C65.922 3.38034 65.9462 2.90688 65.8603 2.44742ZM64.2323 2.83337C64.2323 2.85918 64.2323 2.88611 64.2323 2.91191C64.2323 2.93772 64.2268 2.94894 64.2234 2.96801C64.2201 2.98708 64.2167 3.02074 64.2123 3.04766C64.2078 3.07459 64.2 3.09591 64.1945 3.12059C64.1889 3.14527 64.1855 3.15986 64.18 3.17893C64.1677 3.2182 64.1543 3.25747 64.1387 3.29113V3.3001C64.0544 3.51035 63.9215 3.6973 63.751 3.84537H63.7443C63.7175 3.86893 63.6875 3.89137 63.6585 3.91269L63.6317 3.93288C63.605 3.95083 63.5771 3.96766 63.5482 3.98449L63.5114 4.00805L63.4969 4.0159C63.4197 4.05857 63.3383 4.09316 63.254 4.11912C63.0822 4.17598 62.898 4.18342 62.7222 4.1406C62.5464 4.09779 62.386 4.00642 62.259 3.87678C62.0976 3.72041 61.969 3.53296 61.8809 3.32558C61.7929 3.1182 61.7472 2.89511 61.7464 2.66957C61.7497 2.39833 61.8416 2.13574 62.008 1.92239C62.1744 1.70905 62.4059 1.55683 62.6668 1.48928C62.9343 1.42143 63.2165 1.44332 63.4705 1.55166C63.7245 1.66 63.9364 1.84885 64.0741 2.08952C64.0964 2.13103 64.1153 2.17479 64.1343 2.21855C64.1343 2.22977 64.1421 2.24099 64.1465 2.25333C64.151 2.26567 64.1677 2.30718 64.1766 2.33411C64.1766 2.33411 64.1766 2.34196 64.1766 2.34532C64.1855 2.37225 64.1911 2.4003 64.1978 2.42723C64.2045 2.45416 64.2078 2.46425 64.2123 2.48333C64.2167 2.5024 64.2212 2.5383 64.2245 2.56523C64.2279 2.59215 64.2312 2.6045 64.2334 2.62357C64.2357 2.64264 64.2334 2.67181 64.2334 2.69649C64.2334 2.72117 64.2334 2.74137 64.2334 2.76494C64.2334 2.7885 64.229 2.81318 64.2279 2.83337H64.2323Z" fill="white"/>
</g>
<defs>
<clipPath id="clip0_107_624">
<rect width="76" height="20.6102" fill="white" transform="translate(0 0.266357)"/>
</clipPath>
</defs>
</svg>
