<svg width="76" height="24" viewBox="0 0 76 24" fill="none" xmlns="http://www.w3.org/2000/svg">
<g clip-path="url(#clip0_107_610)">
<path d="M13.7839 12.2664C14.0816 12.3717 14.3719 12.4972 14.6529 12.642C15.2423 12.9876 15.7504 13.4578 16.1425 14.0204C16.6398 14.8559 16.8881 15.8575 16.8874 17.0253C16.8874 21.0342 14.4866 23.0382 9.68505 23.0375H0.373573C0.123751 23.0375 -0.000769862 22.9119 3.58085e-06 22.6607V3.36629C3.58085e-06 3.11588 0.124138 2.98951 0.373573 2.98951H10.1839C11.9242 2.98951 13.3314 3.47005 14.4057 4.43113C15.4801 5.3922 16.0184 6.66568 16.0207 8.25161C16.0365 9.10711 15.8224 9.95099 15.4012 10.6937C15.0274 11.3671 14.4648 11.9142 13.7839 12.2664ZM9.56206 20.1554C10.9697 20.1554 12.0046 19.9261 12.6667 19.4674C13.3268 19.0087 13.6598 18.2153 13.6598 17.0885C13.6598 15.9616 13.3268 15.1695 12.6667 14.7084C12.0065 14.2474 10.967 14.0204 9.56206 14.0204H3.72646C3.3935 14.0204 3.22875 14.1456 3.22875 14.3972V19.7798C3.22875 20.0314 3.3935 20.1566 3.72646 20.1566H9.56206V20.1554ZM3.72646 5.87976C3.47741 5.87976 3.35286 6.00535 3.35286 6.25654V10.7651C3.35286 11.0155 3.47741 11.1407 3.72646 11.1407H9.43795C11.5889 11.1407 12.6651 10.2639 12.6667 8.51022C12.6682 6.75658 11.592 5.87976 9.43795 5.87976H3.72646ZM33.9035 12.2687C34.1668 12.3601 34.4168 12.4864 34.6471 12.6443C35.2695 12.9432 35.7888 13.4233 36.1379 14.0227C36.7165 14.8582 37.0061 15.8598 37.0069 17.0276C37.0069 21.0365 34.6061 23.0406 29.8046 23.0398H20.4908C20.2426 23.0398 20.1172 22.9146 20.1172 22.663V3.36629C20.1172 3.11588 20.2426 2.98951 20.4908 2.98951H30.3023C31.9583 2.98951 33.345 3.47005 34.4627 4.43113C35.5803 5.3922 36.1395 6.66568 36.1403 8.25161C36.1561 9.10711 35.942 9.95099 35.5207 10.6937C35.1457 11.3662 34.5834 11.9129 33.9035 12.2664V12.2687ZM23.7195 5.87976C23.4705 5.87976 23.346 6.00535 23.346 6.25654V10.7651C23.346 11.0155 23.4705 11.1407 23.7195 11.1407H29.5552C31.7077 11.1407 32.7839 10.2639 32.7839 8.51022C32.7839 6.75658 31.7077 5.87976 29.5552 5.87976H23.7195ZM29.6793 20.1554C31.087 20.1554 32.1218 19.9261 32.7839 19.4674C33.444 19.0087 33.777 18.2153 33.777 17.0885C33.777 15.9616 33.444 15.1695 32.7839 14.7084C32.1238 14.2474 31.0843 14.0204 29.6793 14.0204H23.7195C23.4705 14.0204 23.346 14.146 23.346 14.3972V19.7798C23.346 20.031 23.4705 20.1566 23.7195 20.1566H29.6793V20.1554ZM54.7609 3.24109C54.8433 3.07493 54.9268 2.98951 55.0103 2.98951H58.2414C58.3378 2.99669 58.4275 3.04214 58.4908 3.11589C58.5098 3.13065 58.5252 3.14961 58.5358 3.17131C58.5464 3.19302 58.5519 3.21689 58.5519 3.24109C58.5519 3.26529 58.5464 3.28916 58.5358 3.31087C58.5252 3.33258 58.5098 3.35154 58.4908 3.36629L48.1839 22.9076C48.1 22.988 47.9887 23.0328 47.873 23.0328C47.7572 23.0328 47.646 22.988 47.5621 22.9076L37.2552 3.36629C37.2175 3.33842 37.1907 3.2981 37.1794 3.25233C37.1682 3.20657 37.1732 3.15829 37.1937 3.11589C37.2343 3.03281 37.3376 2.98951 37.5046 2.98951H40.6069C40.6869 2.9891 40.7653 3.01284 40.8318 3.05767C40.8984 3.1025 40.9502 3.16637 40.9805 3.24109L47.5679 15.7674C47.5679 15.8517 47.6491 15.8926 47.8173 15.8926C47.8845 15.8979 47.9521 15.8895 48.0161 15.868C48.08 15.8465 48.1391 15.8123 48.1897 15.7674L54.7609 3.24109ZM58.4873 19.9015C58.4573 19.9763 58.4055 20.0402 58.3389 20.0848C58.2722 20.1295 58.1938 20.1529 58.1137 20.1519H54.8862C54.8461 20.1526 54.8068 20.141 54.7734 20.1187C54.7401 20.0963 54.7142 20.0642 54.6994 20.0267C54.6584 19.9497 54.6368 19.8637 54.6367 19.7763L64.946 0.235018C64.9967 0.190228 65.0557 0.156072 65.1197 0.134574C65.1836 0.113076 65.2512 0.104659 65.3184 0.109805C65.4544 0.10014 65.5887 0.145159 65.6919 0.235018L75.9965 19.7763C75.9953 19.8636 75.9738 19.9493 75.9339 20.0267C75.9186 20.0639 75.8927 20.0958 75.8594 20.1181C75.8262 20.1404 75.787 20.1522 75.7471 20.1519H72.523C72.4429 20.1534 72.3642 20.1302 72.2975 20.0855C72.2308 20.0407 72.1791 19.9766 72.1494 19.9015L65.6908 7.38104C65.6605 7.30663 65.6089 7.24303 65.5425 7.19842C65.4762 7.1538 65.3981 7.1302 65.3184 7.13062C65.2383 7.12948 65.1598 7.15278 65.0931 7.19747C65.0265 7.24216 64.9748 7.30616 64.9448 7.38104L58.4873 19.9015Z" fill="white"/>
</g>
<defs>
<clipPath id="clip0_107_610">
<rect width="76" height="22.9206" fill="white" transform="translate(0 0.111115)"/>
</clipPath>
</defs>
</svg>
