<svg width="99" height="25" viewBox="0 0 99 25" fill="none" xmlns="http://www.w3.org/2000/svg">
<g clip-path="url(#clip0_107_592)">
<path d="M45.5468 2.59385C48.63 0.137634 53.2926 -0.588401 57.27 0.477226C58.7602 0.849024 60.4629 1.55164 60.802 2.98321C60.8397 4.15423 60.2676 5.30183 60.0415 6.46406C58.1573 4.97687 55.4166 4.47918 52.926 4.81585C50.2367 5.28426 48.332 7.26329 47.3316 9.34184C46.184 11.7951 45.6427 14.6114 46.6876 17.1584C46.9534 17.8492 47.4039 18.4777 48.0033 18.9939C48.6027 19.5102 49.3345 19.9001 50.1408 20.1328C52.7342 20.8003 55.5194 19.963 57.4516 18.426C57.0679 19.9103 56.8794 21.4326 56.3964 22.8934C55.9065 24.1025 54.3409 24.5358 53.0014 24.7466C49.4899 25.294 45.4371 24.6793 42.9568 22.3343C40.5245 20.0654 39.9661 16.8276 40.086 13.862C40.2641 9.73413 41.8948 5.43356 45.5468 2.59385Z" fill="white"/>
<path d="M22.0868 0.954377C24.6894 0.519703 27.3389 0.323423 29.9902 0.368868C32.4157 0.483042 35.0228 0.922174 36.8214 2.41815C38.9625 4.17468 39.0242 7.26031 37.301 9.24226C36.2479 10.4539 34.7275 11.3084 33.0084 11.6546C34.3513 12.1318 35.6737 12.8256 36.3349 13.9732C37.0792 15.3523 37.2925 16.8976 36.9441 18.3868C36.5956 19.8761 35.7035 21.2325 34.3959 22.2611C32.289 23.9151 29.3633 24.4948 26.5884 24.6587C24.5329 24.7231 22.3986 24.6587 20.4218 24.12C19.8997 23.9762 19.4249 23.7287 19.0361 23.398C18.6473 23.0673 18.3556 22.6626 18.1848 22.2171C17.664 20.9173 17.8696 19.5062 18.1848 18.1888C19.5071 12.4567 20.737 6.69529 22.0868 0.954377ZM26.9584 4.48208C26.6158 6.13321 26.1807 7.77556 25.8963 9.43548C25.8038 9.90096 26.405 10.0046 26.8967 10.021C28.6576 10.0795 30.6446 9.89218 31.9395 8.76215C33.1112 7.70237 33.2653 5.60039 31.6278 4.81581C30.2095 4.1454 28.5068 4.45573 26.9584 4.48208ZM24.9028 13.7624C24.4472 15.3374 24.18 16.9505 23.786 18.5372C23.6558 19.2193 23.0864 20.5865 23.858 20.5865C25.7285 20.5865 27.7497 20.6978 29.3873 19.7697C31.3537 18.7919 32.0012 16.16 30.3705 14.7226C28.8837 13.5575 26.746 13.8268 24.9028 13.7624Z" fill="white"/>
<path d="M64.4165 1.10368C66.2287 0.608928 68.1643 0.573798 70.0554 0.518174C72.6625 0.485971 75.4477 0.553309 77.7396 1.74775C79.5073 2.60552 80.5659 4.28008 80.7817 5.97512C81.3881 9.73995 79.199 13.7975 75.2387 15.6155C72.6316 16.889 69.5518 16.9593 66.633 16.7866C66.1568 18.6514 65.8382 20.5455 65.338 22.4045C65.0811 23.3882 64.3479 24.3543 63.166 24.6529C61.8231 24.7612 60.4699 24.6529 59.127 24.6968C60.9735 16.8392 62.5973 8.94951 64.4165 1.10368ZM69.658 4.66651C69.151 6.94414 68.6302 9.21885 68.154 11.4994C68.026 11.9907 68.3686 12.464 68.8392 12.5943C70.2705 12.8218 71.7498 12.6092 73.0153 11.9942C75.3689 10.8056 76.3589 8.0244 75.2798 5.90486C74.1527 4.22445 71.5593 4.51428 69.658 4.65773V4.66651Z" fill="white"/>
<path d="M5.44416 2.27471C5.90504 2.08001 6.42741 2.01842 6.93277 2.09919C7.43812 2.17996 7.89913 2.39874 8.2465 2.72262C9.30851 4.10443 9.3599 5.8229 9.30851 7.4067C9.28835 8.70591 9.01033 9.99278 8.48631 11.2125C6.66486 9.20768 4.34587 7.57293 1.69629 6.42597C2.38146 4.74263 3.5531 3.0915 5.44416 2.27471Z" fill="white"/>
<path d="M83.4678 6.37325C84.314 4.68991 85.465 2.8924 87.5582 2.1693C88.6168 1.82385 89.7302 2.29225 90.3674 3.02707C91.6213 5.63551 91.3232 8.56013 90.34 11.1949C88.4484 9.21222 86.1118 7.57285 83.4678 6.37325Z" fill="white"/>
<path d="M9.24635 2.70798C11.9699 4.17175 14.1624 6.24738 15.961 8.50451C17.4512 10.3811 17.602 13.0071 16.1563 14.9451C14.392 17.4511 11.7952 19.4418 9.14015 21.2452C7.6362 22.2025 5.83078 23.3442 3.84379 22.8993C1.98013 22.4953 0.83248 21.0666 0 19.679C3.98083 17.6824 7.87944 15.0271 9.48616 11.1891C10.0102 9.96935 10.2882 8.68248 10.3084 7.38327C10.3597 5.80825 10.3084 4.08978 9.24635 2.70798Z" fill="white"/>
<path d="M91.3672 3.01245C93.7652 4.04295 95.4782 5.92243 97.0986 7.69652C98.3524 9.00514 99.1541 10.6856 98.9725 12.4011C98.8389 13.8649 97.9448 15.1588 96.917 16.2918C94.8321 18.5322 92.3531 20.4827 89.5686 22.0737C88.4346 22.6973 87.0437 23.2447 85.6768 22.8846C83.8132 22.4836 82.573 21.0696 81.8193 19.6409C85.8721 17.7234 89.6405 14.9568 91.3363 11.1803C92.3093 8.54552 92.621 5.62089 91.3672 3.01245Z" fill="white"/>
</g>
<defs>
<clipPath id="clip0_107_592">
<rect width="99" height="24.9281" fill="white"/>
</clipPath>
</defs>
</svg>
