<svg width="127" height="24" viewBox="0 0 127 24" fill="none" xmlns="http://www.w3.org/2000/svg">
<g clip-path="url(#clip0_107_602)">
<path fill-rule="evenodd" clip-rule="evenodd" d="M0 23.8561H19.6951C20.4325 23.8532 21.1387 23.5528 21.6592 23.0207C22.1798 22.4885 22.4722 21.7679 22.4726 21.0166V1.17752H2.77908C2.04235 1.18163 1.33705 1.48219 0.816805 2.01374C0.296565 2.54529 0.00353539 3.26476 0.00153014 4.01546V23.8561H0ZM5.30746 20.2378L16.9955 18.1568V5.70545L5.30746 7.79729V20.2378Z" fill="white"/>
<path fill-rule="evenodd" clip-rule="evenodd" d="M81.9244 9.37045C83.7894 9.37045 85.2875 11.023 85.2875 13.6445C85.2875 16.2659 83.7833 17.9808 81.9244 17.9808C81.4461 17.9883 80.9728 17.8806 80.543 17.6666C80.1132 17.4525 79.7391 17.138 79.4511 16.7488C78.8396 15.9232 78.6638 15.0354 78.6547 13.9887C78.6378 12.7567 78.7433 11.7271 79.2799 10.886C79.9173 9.92806 80.8742 9.37045 81.9244 9.37045ZM78.7617 3.36281L78.725 8.8689C80.2842 7.25368 82.0238 6.86116 84.1975 7.46707C86.6434 8.14774 88.0451 10.4872 88.0788 13.6974C88.1414 17.8048 85.3272 20.378 82.0054 20.406C78.3581 20.4418 75.8419 17.8313 75.8695 14.0339V3.36281H78.7617ZM73.4114 6.75992H74.2552V9.6991H73.4114V9.68975C72.7984 9.69861 72.2131 9.95126 71.7803 10.3938C71.5667 10.6106 71.3974 10.8685 71.2822 11.1524C71.167 11.4363 71.1082 11.7407 71.1093 12.0479H71.1184V20.1552H68.2247V12.0479C68.2254 11.353 68.3609 10.665 68.6232 10.0235C68.8855 9.38203 69.2696 8.79962 69.7533 8.30972C70.2327 7.82284 70.802 7.43744 71.4282 7.17573C72.0545 6.91402 72.7254 6.78117 73.4022 6.78484V6.76615L73.4114 6.75992ZM62.0765 15.1148H57.8941C57.9257 15.2618 57.9739 15.4045 58.0378 15.5401C58.5407 16.8765 59.6505 17.5649 60.9315 17.797H60.9392C61.1104 17.8235 61.2999 17.8515 61.4803 17.8702C61.6575 17.8891 61.8356 17.8985 62.0138 17.8983C63.0896 17.9161 64.1516 17.6505 65.0971 17.1273C65.1645 17.7759 65.1507 18.4307 65.0558 19.0758C64.8112 20.3219 62.6253 20.4076 61.8197 20.4076V20.4153C61.5644 20.4172 61.3093 20.4052 61.0553 20.3795C60.7988 20.3613 60.5436 20.3275 60.291 20.2783C56.928 19.6693 55.112 16.7098 55.2465 13.4451V13.389C55.3336 10.6414 56.8409 8.1929 59.4457 7.3814H59.4548L59.4992 7.36427L59.5083 7.35492C61.5965 6.7241 63.5165 7.31754 64.8051 8.45925C65.0446 8.68507 65.2679 8.92816 65.4731 9.18665C65.6781 9.44652 65.8534 9.72921 65.9959 10.0293L66.0143 10.0573C66.285 10.595 66.4323 11.1883 66.4453 11.7925C66.4448 12.4212 66.243 13.0326 65.8706 13.5339C65.5345 13.9704 65.1025 14.3204 64.6094 14.5557V14.565C63.8174 14.9412 62.9518 15.1292 62.078 15.1148H62.0765ZM57.8406 12.8937H62.2034C63.1725 12.8937 64.2915 12.3922 63.732 11.0776L63.7152 11.0511C63.651 10.9084 63.5753 10.7714 63.4889 10.6414C63.3876 10.4846 63.268 10.3408 63.1328 10.2131C62.7621 9.81587 62.2877 9.53498 61.7655 9.40361C61.2432 9.27223 60.695 9.29586 60.1855 9.47169V9.46234L60.1504 9.48103C59.9593 9.54871 59.7734 9.63044 59.594 9.72558C59.4217 9.82122 59.2598 9.93503 59.1109 10.0651C58.4994 10.5776 58.0408 11.6352 57.8375 12.8937H57.8406ZM50.3196 3.48274V6.92502H55.0309L54.9239 8.0278C54.8154 9.00752 54.2681 9.28634 53.1843 9.31593H50.3196V15.5681C50.3231 15.8285 50.3409 16.0885 50.3731 16.3469C50.5627 17.322 51.113 17.593 52.0134 17.6786C52.8893 17.7986 54.3217 17.6241 55.005 17.322C55.1135 18.392 54.9683 19.8141 54.3675 20.054C53.7667 20.2938 52.5927 20.3811 51.7688 20.353C51.3666 20.3456 50.9657 20.3039 50.5703 20.2284C49.7739 20.0327 49.0382 19.637 48.4302 19.0774C47.536 18.0462 47.484 16.8687 47.429 15.6429L47.4198 15.5697V3.48274H50.3196ZM38.9832 6.75369H40.0227V6.77238C40.7033 6.76889 41.3779 6.90265 42.0075 7.16596C42.6372 7.42928 43.2095 7.81694 43.6914 8.30661C44.1767 8.79536 44.5617 9.37755 44.8242 10.0193C45.0866 10.6611 45.2212 11.3496 45.2201 12.0448V20.1521H42.3371V12.0479H42.3462C42.3372 11.4254 42.0943 10.83 41.6675 10.3844C41.2309 9.94709 40.6456 9.69824 40.0334 9.68975V9.6991H38.9939V9.68975C38.381 9.69894 37.7957 9.95154 37.3628 10.3938C37.15 10.6112 36.9814 10.8691 36.8665 11.153C36.7516 11.4368 36.6927 11.7409 36.6933 12.0479H36.704V20.1552H33.8103V12.0479C33.8113 11.353 33.9468 10.6651 34.2091 10.0237C34.4714 9.38221 34.8554 8.79977 35.3389 8.30972C35.8193 7.8233 36.3891 7.43823 37.0158 7.17656C37.6424 6.9149 38.3136 6.78178 38.9908 6.78484V6.76615L38.9832 6.75369ZM28.3071 3.22574H31.2268V20.1552H28.3071V3.22574ZM106.789 6.75992H107.82V6.77861C109.193 6.78089 110.51 7.33175 111.488 8.31284C112.456 9.30758 113.001 10.6504 113.005 12.0511H113.014V20.1583H110.11V12.0479H110.126C110.129 11.7372 110.069 11.4293 109.95 11.1431C109.832 10.857 109.656 10.5987 109.435 10.3844C109.005 9.94478 108.423 9.69524 107.814 9.68975V9.6991H106.774V9.68975C106.472 9.69086 106.173 9.75373 105.895 9.87466C105.617 9.99559 105.365 10.1721 105.155 10.3938C104.935 10.6066 104.76 10.8631 104.64 11.1476C104.521 11.4321 104.46 11.7385 104.461 12.0479H104.47V20.1552H101.578V12.0479H101.586C101.594 10.6456 102.143 9.30273 103.115 8.30972C104.092 7.32776 105.411 6.77959 106.783 6.78484V6.76615L106.789 6.75992ZM115.35 3.22574H118.27V20.1552H115.35V3.22574ZM126.387 7.3814H123.493L118.26 13.4171L124.112 20.135H126.998L121.157 13.4171L126.396 7.3814H126.387ZM97.1192 14.3532V14.2924C96.487 14.3502 95.8517 14.3648 95.2175 14.3361C94.1093 14.3438 93.4718 14.4357 92.8543 14.7208C92.5956 14.8402 92.3705 15.0238 92.1996 15.2549C92.0287 15.4859 91.9174 15.7569 91.8759 16.0432V16.1351C91.7964 17.1849 92.3253 17.9621 93.2639 18.0992H93.2899V18.1101C94.4119 18.2659 95.2772 18.0836 95.936 17.7799C96.4542 17.5416 96.8211 16.9326 96.9923 16.1553C97.1192 15.6616 97.11 14.9248 97.1192 14.3547V14.3532ZM93.5681 6.89543C95.0127 6.78484 96.7141 6.91412 97.8957 7.82998C98.3946 8.21458 98.8008 8.70998 99.0835 9.27854C99.4091 9.9561 99.4305 10.7925 99.4947 11.5168V15.4451C99.4947 17.3765 98.8832 19.1007 96.9587 19.9886C96.286 20.2789 95.5644 20.4334 94.8339 20.4434C91.5733 20.5259 89.1106 18.8468 89.3628 15.7893C89.5249 13.59 91.3806 12.6398 93.536 12.4825C94.5602 12.4093 96.3487 12.6383 96.9954 12.4919C97.027 11.8062 96.9219 11.1211 96.6866 10.4779C96.5077 10.0745 96.2066 9.61655 95.6853 9.453C95.0311 9.17419 94.0909 9.14148 93.3373 9.19599C92.3193 9.23475 91.3284 9.54056 90.4604 10.0838L90.4696 8.94366C90.4696 8.59632 90.5139 8.17421 90.6943 7.88294C91.1269 7.18047 92.6586 6.9624 93.5681 6.89854V6.89543Z" fill="white"/>
</g>
<defs>
<clipPath id="clip0_107_602">
<rect width="127" height="23" fill="white" transform="translate(0 0.92804)"/>
</clipPath>
</defs>
</svg>
