<svg width="109" height="23" viewBox="0 0 109 23" fill="none" xmlns="http://www.w3.org/2000/svg">
<path d="M0 0.204224V16.2746C1.25371 22.9272 7.25524 22.9928 7.25524 22.9928H22.6867V0.204224H0ZM18.9913 11.5985H15.5643V7.44865H11.3434V4.22289H18.9913V11.5985Z" fill="white"/>
<path d="M35.8104 0.53363C37.7238 0.863052 37.7238 2.83816 37.7238 2.83816C37.9865 3.89202 36.7343 5.01149 36.7343 5.01149C37.9866 5.34091 37.9865 7.11921 37.9865 7.11921C38.1193 9.42517 35.4806 9.82019 35.4806 9.82019H30.1973V0.53363H35.8104ZM32.1835 2.17931V4.22287H34.9537C34.9537 4.22287 35.9204 4.00325 35.8761 3.2018C35.8761 3.2018 35.789 2.18074 34.8651 2.18074L32.1835 2.17931ZM32.1835 5.73593V8.10748H34.8651C34.8651 8.10748 36.096 7.95346 36.1845 6.82402C36.1845 6.82402 36.1403 5.73735 35.0422 5.73735L32.1835 5.73593Z" fill="white"/>
<path d="M42.4278 0.53363H44.4083L48.0566 9.82019H46.0332L45.2864 7.91068H41.6809L40.8014 9.82019H38.8223L42.4278 0.53363ZM43.4387 3.20038L42.1236 6.30778H44.761L43.4387 3.20038Z" fill="white"/>
<path d="M103.096 13.4923H105.075L108.725 22.7803H106.698L105.952 20.8751H102.346L101.466 22.786H99.4888L103.096 13.4923ZM104.108 16.1605L102.789 19.2665H105.423L104.108 16.1605Z" fill="white"/>
<path d="M67.3578 6.92241L68.5444 8.10748C68.5444 8.10748 67.4892 9.81876 64.7633 9.81876C64.7633 9.81876 60.0155 10.4548 59.6228 5.17548C59.6228 5.17548 59.3144 0.422392 64.7633 0.202777C64.7633 0.202777 67.1379 0.114363 68.3245 1.78286L67.0051 3.01213C67.0051 3.01213 66.3126 1.98109 64.5991 1.98109C64.5991 1.98109 61.9275 1.9383 61.729 5.02146C61.729 5.02146 61.5976 7.94205 64.6648 8.17165C64.6648 8.17308 66.4897 8.3057 67.3578 6.92241Z" fill="white"/>
<path d="M51.0439 19.9524L52.2305 21.1375C52.2305 21.1375 51.1752 22.8488 48.4493 22.8488C48.4493 22.8488 43.7015 23.4862 43.3089 18.2055C43.3089 18.2055 43.0004 13.4524 48.4493 13.2328C48.4493 13.2328 50.824 13.1458 52.0106 14.8143L50.6912 16.045C50.6912 16.045 50.0001 15.0125 48.2851 15.0125C48.2851 15.0125 45.6135 14.9697 45.4165 18.0543C45.4165 18.0543 45.2837 20.9735 48.3508 21.2045C48.3508 21.2045 50.1757 21.3357 51.0439 19.9524Z" fill="white"/>
<path d="M86.8173 19.9524L88.0039 21.1375C88.0039 21.1375 86.9486 22.8488 84.2228 22.8488C84.2228 22.8488 79.4735 23.4862 79.0823 18.2055C79.0823 18.2055 78.7752 13.4524 84.2228 13.2328C84.2228 13.2328 86.5974 13.1458 87.784 14.8143L86.4646 16.0436C86.4646 16.0436 85.772 15.0111 84.0571 15.0111C84.0571 15.0111 81.3869 14.9683 81.1884 18.0529C81.1884 18.0529 81.0571 20.972 84.1242 21.2031C84.1214 21.2045 85.9462 21.3357 86.8173 19.9524Z" fill="white"/>
<path d="M74.4927 8.18593C73.8795 8.18593 73.2801 8.00431 72.7702 7.66406C72.2604 7.3238 71.8631 6.84019 71.6285 6.27438C71.3939 5.70858 71.3326 5.08601 71.4523 4.4854C71.572 3.8848 71.8674 3.33315 72.3011 2.90023C72.7348 2.4673 73.2873 2.17254 73.8887 2.05325C74.4902 1.93395 75.1135 1.99546 75.68 2.23001C76.2464 2.46456 76.7304 2.8616 77.0709 3.37092C77.4114 3.88024 77.5929 4.47896 77.5927 5.09135C77.5923 5.91222 77.2655 6.69933 76.6842 7.27963C76.1029 7.85993 75.3146 8.18593 74.4927 8.18593V8.18593ZM79.4404 5.09135C79.4404 4.11405 79.1502 3.15869 78.6065 2.3461C78.0629 1.5335 77.2901 0.900159 76.3861 0.526162C75.482 0.152164 74.4872 0.0543111 73.5274 0.244973C72.5676 0.435636 71.686 0.906249 70.9941 1.59731C70.3021 2.28836 69.8309 3.16882 69.64 4.12735C69.4491 5.08587 69.5471 6.07941 69.9215 6.98232C70.296 7.88523 70.9302 8.65696 71.7438 9.19992C72.5575 9.74288 73.5141 10.0327 74.4927 10.0327C75.8049 10.0327 77.0633 9.51208 77.9912 8.5854C78.9191 7.65872 79.4404 6.40188 79.4404 5.09135V5.09135Z" fill="white"/>
<path d="M66.4453 13.4096H64.6318V22.8745H66.4453V13.4096Z" fill="white"/>
<path d="M41.3838 13.4096H39.5703V22.8745H41.3838V13.4096Z" fill="white"/>
<path d="M30.3374 22.8745V13.4096H35.0852C35.0852 13.4096 37.8882 13.7719 37.7569 16.5712C37.7569 16.5712 37.9867 19.0084 35.1509 19.7H32.1837V22.8745H30.3374ZM32.1837 15.1879V18.0558H34.5255C34.5255 18.0558 35.8791 17.7919 35.8777 16.6226C35.8777 16.6226 35.9762 15.255 34.6897 15.1894L32.1837 15.1879Z" fill="white"/>
<path d="M54.0796 13.4096V22.8745H55.9587V18.9428H60.1468V22.8745H61.9603V13.4096H60.7408C60.575 13.4196 60.4198 13.4942 60.3087 13.6175C60.1975 13.7408 60.1394 13.9028 60.1468 14.0685V17.0319H55.893V13.4096H54.0796Z" fill="white"/>
<path d="M89.959 13.4096V22.8745H91.8395V18.9428H96.0262V22.8745H97.8411V13.4096H96.6202C96.4544 13.4196 96.2992 13.4942 96.188 13.6175C96.0769 13.7408 96.0188 13.9028 96.0262 14.0685V17.0319H91.7696V13.4096H89.959Z" fill="white"/>
<path d="M49.562 9.82019V0.53363H51.7039C51.8431 0.573604 51.9731 0.640674 52.0863 0.730981C52.1995 0.821289 52.2938 0.933053 52.3636 1.05985L55.9248 6.92242V0.53363H57.7383V9.82019H55.832C55.832 9.82019 55.5021 9.85299 55.2051 9.35957L51.6111 3.4642V9.82019H49.562Z" fill="white"/>
<path d="M68.9971 22.8744V13.5879H71.1389C71.2782 13.6278 71.4082 13.6949 71.5214 13.7852C71.6346 13.8755 71.7288 13.9873 71.7986 14.1141L75.3599 19.9767V13.5879H77.1733V22.8744H75.2628C75.2628 22.8744 74.9329 22.9072 74.6359 22.4138L71.0418 16.5184V22.8744H68.9971Z" fill="white"/>
</svg>