<svg width="129" height="24" viewBox="0 0 129 24" fill="none" xmlns="http://www.w3.org/2000/svg">
<g clip-path="url(#clip0_107_612)">
<path d="M53.1595 15.6196C54.4498 15.6196 55.2126 14.4831 55.2126 13.1308C55.2126 11.7786 54.4924 10.6247 53.1595 10.6247C51.7775 10.6247 51.1063 11.7595 51.1063 13.1308C51.1063 14.5022 51.8675 15.6196 53.1595 15.6196ZM53.1595 17.9115C50.0734 17.9115 47.8623 16.0481 47.8623 13.1308C47.8623 10.2501 50.1524 8.33276 53.1595 8.33276C56.1665 8.33276 58.4598 10.2374 58.4598 13.1308C58.4598 16.0243 56.2297 17.9115 53.1595 17.9115Z" fill="white"/>
<path d="M91.1743 13.1324C91.1743 11.9087 90.4793 10.8199 89.268 10.8199C88.2035 10.8199 87.3443 11.7357 87.3443 13.1324C87.3443 14.4895 88.0471 15.4545 89.268 15.4545C90.3735 15.4545 91.1743 14.5339 91.1743 13.1324ZM84.2251 17.7163V4.79492H87.3838V9.22319H87.4201C88.2295 8.66106 89.1876 8.35486 90.1713 8.34389C92.6367 8.34389 94.4482 10.3358 94.4482 12.9706C94.4482 16.2624 92.4393 17.921 90.1524 17.921C88.4151 17.921 87.5433 17.1099 87.3269 16.8766H87.2764L87.2306 17.7163H84.2251Z" fill="white"/>
<path d="M68.806 3.92514C68.4536 3.92514 68.1092 4.03014 67.8162 4.22687C67.5232 4.42359 67.2949 4.70321 67.16 5.03035C67.0252 5.3575 66.9899 5.71748 67.0586 6.06477C67.1274 6.41207 67.2971 6.73108 67.5462 6.98146C67.7954 7.23185 68.1128 7.40237 68.4584 7.47145C68.804 7.54053 69.1622 7.50507 69.4877 7.36956C69.8132 7.23406 70.0915 7.00458 70.2872 6.71016C70.483 6.41574 70.5874 6.06959 70.5874 5.71549C70.5853 5.24131 70.397 4.78713 70.0633 4.45183C69.7297 4.11652 69.2778 3.92723 68.806 3.92514ZM67.2171 8.56609H70.3947V17.7369H67.2171V8.56609Z" fill="white"/>
<path d="M108.012 17.7226H111.096V12.9896C111.096 11.8785 111.829 11.1215 112.762 11.1215C113.832 11.1215 114.44 11.8198 114.44 12.9896V17.7226H117.524V12.2071C117.524 10.131 116.194 8.35339 113.754 8.35339C112.123 8.35339 111.276 9.24222 110.888 9.59299H110.823L110.791 8.57878H108.012V17.7226Z" fill="white"/>
<path d="M119.473 17.7258H122.637V13.4832H122.67L125.479 17.7258H129L125.609 12.869L128.911 8.57403H125.397L122.67 12.3515H122.637V4.80762H119.473V17.7258Z" fill="white"/>
<path d="M47.0534 8.70099C46.3222 8.46468 45.5597 8.34107 44.7917 8.33435C41.9331 8.33435 39.7915 10.1311 39.7915 13.1245C39.7915 15.8449 41.7152 17.9131 44.6638 17.9131C45.4763 17.9087 46.283 17.7743 47.0534 17.5147L46.8954 14.8418C46.6506 14.9529 46.0189 15.318 45.2908 15.318C44.0099 15.318 43.0797 14.4069 43.0797 13.1261C43.0797 11.7801 44.081 10.9135 45.3319 10.9135C46.0378 10.9135 46.6664 11.2437 46.9018 11.3595L47.0597 8.70258" fill="white"/>
<path d="M75.1725 13.0499C75.1725 14.5641 76.0159 15.5116 77.1041 15.5116C78.0912 15.5116 79.0546 14.5815 79.0546 13.1737C79.0546 11.7659 78.2017 10.7818 77.1041 10.7818C75.9701 10.7818 75.1725 11.8008 75.1725 13.0499ZM82.1817 8.55655V17.7194H79.1004L79.0546 16.7957H78.9883C78.6471 17.1131 77.9349 17.9226 75.948 17.9226C73.7464 17.9226 71.8164 15.9973 71.8164 13.1293C71.8164 10.4707 73.5268 8.34546 76.1517 8.34546C77.9364 8.34546 78.6661 9.13906 78.9393 9.38666H79.0214L79.053 8.55655H82.1817Z" fill="white"/>
<path d="M98.9513 13.0436C98.9513 14.5593 99.7931 15.5069 100.883 15.5069C101.87 15.5069 102.832 14.5768 102.832 13.1689C102.832 11.7611 101.979 10.7786 100.888 10.7786C99.7521 10.7786 98.9561 11.796 98.9561 13.0436H98.9513ZM105.961 8.55656V17.7194H102.879L102.833 16.7941H102.767C102.426 17.1115 101.714 17.9226 99.7268 17.9226C97.5157 17.9226 95.5952 15.9973 95.5952 13.1293C95.5952 10.4675 97.3056 8.34387 99.9305 8.34387C101.717 8.34387 102.445 9.13747 102.718 9.38507H102.8L102.832 8.55656H105.961Z" fill="white"/>
<path d="M29.613 17.3829C30.8039 17.7263 32.0367 17.9004 33.2755 17.9004C35.9826 17.9004 38.6833 16.9369 38.6833 13.9514C38.6833 9.85171 33.0592 10.4199 33.0592 8.7867C33.0592 7.95025 33.9247 7.76931 34.7712 7.76931C35.9462 7.76931 37.434 8.33752 37.772 8.47085L38.0262 5.64882C37.2065 5.36789 35.962 5.20758 34.7901 5.20758C32.1179 5.20758 29.4819 6.25671 29.4819 8.91685C29.4819 12.9436 35.0902 12.1039 35.0902 14.2165C35.0902 15.0291 34.2832 15.3386 33.2534 15.3386C31.832 15.3386 30.5069 14.626 29.9368 14.3689L29.6209 17.3845" fill="white"/>
<path d="M65.6792 15.2228C65.3933 15.3083 65.0988 15.3615 64.8011 15.3815C64.1583 15.3815 63.4571 15.0799 63.4571 13.953V10.8596H65.4502V8.55655H63.4571V5.60596H60.2841V8.55655H58.8975V10.8596H60.2841V14.4847C60.2841 16.4782 61.2049 17.9067 63.5518 17.9067C64.135 17.9023 64.7165 17.8444 65.2891 17.7337L65.6808 15.2259" fill="white"/>
<path d="M18.4184 11.5802C18.4974 15.537 14.9438 18.5241 11.9652 18.5241H4.6133L0 23.1429H11.8846C15.6751 23.1429 19.3187 19.7129 19.3187 15.618C19.3187 14.4149 19.1733 12.8483 18.4184 11.6595V11.5802ZM17.1549 14.4942C17.592 13.6914 17.8446 12.8003 17.8941 11.8865H14.5601C14.5553 12.774 14.4065 13.6549 14.1194 14.4942H17.1549ZM13.8999 15.0117C13.4192 16.1372 12.6824 17.1337 11.7488 17.921C13.4435 17.921 15.3813 17.1782 16.8027 15.0053L13.8999 15.0117ZM13.5224 14.4942C13.8032 13.6514 13.9767 12.7763 14.0389 11.8897H8.98494C9.04636 12.7773 9.21936 13.6535 9.49981 14.4974L13.5224 14.4942ZM8.92651 14.4942C8.63806 13.6547 8.48348 12.7746 8.46849 11.8865H5.13448C5.20301 12.7968 5.45389 13.6838 5.87204 14.4942H8.92651ZM11.5214 17.402C12.2523 16.7198 12.8538 15.9099 13.2966 15.0117H9.72883C10.1736 15.9138 10.782 16.7244 11.523 17.402H11.5214ZM6.17054 15.0117C7.64882 17.1845 9.58511 17.9273 11.305 17.9273C10.4032 17.2385 9.44927 15.9799 9.14288 15.0117H6.17054ZM14.1178 8.75337C14.4204 9.58869 14.5697 10.4722 14.5585 11.3611H17.8941C17.8512 10.4462 17.5982 9.55367 17.1549 8.75337H14.1178ZM16.7933 8.14706C15.3719 6.06308 13.4419 5.24091 11.7393 5.24091C12.6143 5.90277 13.5145 7.163 13.892 8.14706H16.7933ZM9.50456 8.75337C9.21946 9.59605 9.04634 10.4729 8.98969 11.3611H14.0436C13.987 10.4729 13.8138 9.59605 13.5287 8.75337H9.50456ZM5.87204 8.75337C5.44767 9.56131 5.19641 10.4496 5.13448 11.3611H8.46849C8.46664 10.4714 8.62227 9.58836 8.92809 8.75337H5.87204ZM11.5214 5.82182C10.7827 6.4754 10.1748 7.26459 9.73039 8.14706H13.2982C12.9175 7.32331 12.1816 6.42019 11.523 5.82182H11.5214ZM9.14288 8.14706C9.44927 7.16142 10.4064 5.90277 11.305 5.24091C9.58511 5.24091 7.64882 6.06308 6.17054 8.14706H9.14288ZM4.61172 11.4976C3.87259 10.3199 3.71148 8.75337 3.71148 7.55028C3.71148 3.45532 7.34399 0 11.1344 0H23.0254L18.4137 4.67428H11.0602C8.10841 4.67428 4.53118 7.68677 4.6133 11.4976H4.61172Z" fill="white"/>
</g>
<defs>
<clipPath id="clip0_107_612">
<rect width="129" height="23.1429" fill="white"/>
</clipPath>
</defs>
</svg>
